# xmcd CD database file
#
# Track frame offsets:
#	187
#	26677
#	54792
#	94542
#	134320
#	158832
#	194517
#	229005
#	259830
#
# Disc length: 3842 seconds
#
# Revision: 1
# Processed by: cddbd v1.4PL0 Copyright (c) Steve Scherf et al.
# Submitted via: CDex 1.50
#
DISCID=6d0f0009
DTITLE=Ted Curson - 'round About Midnight
DYEAR=1980
DGENRE=Jazz
TTITLE0=Pent-Up House
TTITLE1=Stella by Starlight
TTITLE2=Walkin'
TTITLE3='Round About Midnight
TTITLE4=Bass Conclave
TTITLE5=Lin's Garden
TTITLE6=Snake Johnson
TTITLE7=Marjo
TTITLE8=All the Things You Are
EXTD=YEAR: 1980
EXTT0=
EXTT1=
EXTT2=
EXTT3=
EXTT4=
EXTT5=
EXTT6=
EXTT7=
EXTT8=
PLAYORDER=
